<?xml version="1.0" encoding="utf-8" ?>
<svg xmlns="http://www.w3.org/2000/svg" xmlns:xlink="http://www.w3.org/1999/xlink" width="341" height="341">
	<path fill="#003356" transform="scale(0.333333 0.333333)" d="M0 0L1024 0L1024 0.791527L1024 1024L0 1024L0 0.95312L0 0Z"/>
	<path fill="#335777" transform="scale(0.333333 0.333333)" d="M0 0L1024 0L1024 0.791527C1016.6 -0.232088 1006.25 0.552048 998.398 0.5165L934.828 0.518355L697.644 0.622682L139.659 0.536255L32.5434 0.649486C25.5415 0.677151 5.88506 -0.403919 0 0.95312L0 0Z"/>
	<path fill="#FBFCFA" transform="scale(0.333333 0.333333)" d="M511.813 54.4297C530.214 63.3033 547.788 74.4362 565.41 84.7817Q605.826 108.217 645.87 132.284L740.743 188.397C754.668 196.56 768.914 204.288 782.653 212.75L783.062 281.861C791.848 291.334 799.465 302.132 806.913 312.672C842.283 362.722 866.152 418.074 880.751 477.443C889.092 481.149 919.45 494.52 924.64 499.218C926.032 500.478 927.207 502.507 928.181 504.121C937.539 519.629 945.708 535.91 954.625 551.679C961.389 563.641 972.34 580.521 977.136 592.624C959.332 597.408 941.68 603.389 924.006 608.702C908.832 613.263 892.908 617.141 878.189 623.001C866.556 675.113 843.412 727.244 810.123 769.21C742.596 854.338 652.861 903.274 545.093 915.625C536.548 939.48 526.458 961.958 512.777 983.289C512.303 983.789 512.629 983.552 511.67 983.781C509.168 981.414 507.409 977.01 505.739 973.99C495.259 955.03 486.62 935.872 479.046 915.58C471.076 915.196 462.782 913.532 454.904 912.278Q450.119 911.511 445.355 910.623Q440.591 909.734 435.851 908.725Q431.111 907.715 426.398 906.585Q421.685 905.454 417.003 904.204Q412.321 902.954 407.672 901.586Q403.023 900.216 398.41 898.729Q393.798 897.242 389.225 895.638Q384.652 894.034 380.121 892.313Q375.59 890.593 371.105 888.758Q366.62 886.923 362.183 884.974Q357.746 883.025 353.36 880.963Q348.974 878.901 344.642 876.729Q340.31 874.556 336.035 872.273Q331.76 869.991 327.544 867.6Q323.329 865.209 319.175 862.712Q315.022 860.215 310.934 857.612Q307.045 855.141 303.217 852.577Q299.389 850.012 295.625 847.355Q291.861 844.698 288.162 841.95Q284.464 839.202 280.834 836.364Q277.204 833.527 273.644 830.602Q270.084 827.677 266.596 824.666Q263.108 821.655 259.695 818.559Q256.282 815.464 252.945 812.287Q249.609 809.11 246.35 805.852Q243.092 802.594 239.914 799.258Q236.736 795.922 233.64 792.509Q230.545 789.096 227.533 785.609Q224.522 782.122 221.596 778.562Q218.67 775.003 215.832 771.373Q212.994 767.743 210.246 764.045Q207.497 760.348 204.839 756.584Q202.181 752.82 199.616 748.993Q197.051 745.165 194.58 741.276Q192.109 737.388 189.733 733.44Q187.357 729.492 185.079 725.487Q182.8 721.483 180.62 717.424Q178.439 713.365 176.358 709.254Q174.277 705.143 172.297 700.982Q170.317 696.822 168.439 692.615Q166.561 688.407 164.787 684.155Q163.012 679.903 161.341 675.609Q159.67 671.315 158.105 666.982Q156.539 662.648 155.08 658.278Q153.62 653.908 152.268 649.503Q150.915 645.099 149.67 640.662Q148.426 636.226 147.289 631.761Q146.153 627.296 145.126 622.804C134.195 618.047 122.044 615.02 110.655 611.467L48.2116 592.183C54.3372 580.68 96.0865 501.426 100.395 498.399C100.569 498.277 100.75 498.165 100.927 498.046C105.777 494.784 111.48 492.578 116.728 490.019C126.201 485.4 135.604 480.639 145.187 476.25C148.425 464.418 150.686 452.334 154.182 440.556Q156.542 432.621 159.209 424.784Q161.875 416.947 164.844 409.219Q167.812 401.491 171.079 393.884Q174.345 386.278 177.904 378.803Q181.464 371.329 185.31 363.999Q189.157 356.668 193.285 349.492Q197.413 342.317 201.817 335.307Q206.221 328.297 210.893 321.463C220.25 307.975 230.798 295.577 240.577 282.442C240.531 259.812 239.683 236.865 240.732 214.277C248.621 209.268 256.962 204.875 264.986 200.069L349.377 149.935Q407.281 114.511 466.276 80.9322C481.51 72.1588 496.198 62.5483 511.813 54.4297Z"/>
	<path fill="#F8AF57" transform="scale(0.333333 0.333333)" d="M447.218 769.472C449.475 761.24 450.844 752.68 452.309 744.28C456.455 752.792 460.743 760.958 465.738 769.007C459.593 768.909 453.35 769.024 447.218 769.472Z"/>
	<path fill="#F03F21" transform="scale(0.333333 0.333333)" d="M465.738 769.007C466.942 774.608 464.022 792.764 463.524 799.841Q452.343 797.476 441.274 794.63C443.554 786.38 445.488 777.856 447.218 769.472C453.35 769.024 459.593 768.909 465.738 769.007Z"/>
	<path fill="#F8AF57" transform="scale(0.333333 0.333333)" d="M291.842 240.681C312.163 229.65 331.477 217.239 351.277 205.357C364.704 197.299 378.531 189.91 391.902 181.751L423.282 162.693C428.715 159.417 434.462 155.313 440.385 153.042C440.284 153.168 440.186 153.296 440.084 153.421C435.622 158.868 429.403 163.045 424.491 168.149C410.123 183.079 400.122 201.96 393.723 221.553C383.96 225.022 374.01 228.451 369.284 238.595C365.063 247.657 362.305 272.459 366.05 281.717C369.719 290.787 379.293 298.826 387.871 303.051L385.807 316.144C376.588 322.335 362.638 328.188 352.468 333.334C339.152 340.072 326.264 347.531 313.065 354.473C306.133 358.119 298.867 361.181 291.983 364.889L291.842 240.681Z"/>
	<path fill="#F8AF57" transform="scale(0.333333 0.333333)" d="M589.703 156.569C594.763 158.569 599.6 161.847 604.294 164.596L628.357 178.738L694.017 217.342C706.643 224.844 718.955 232.748 731.835 239.832C731.643 281.034 731.026 322.357 731.783 363.549C720.344 357.128 708.491 351.561 696.754 345.721C687.196 340.966 677.773 335.945 668.209 331.201C658.156 326.214 647.605 321.65 638.129 315.628C637.852 312.191 637.212 308.793 636.647 305.394C644.729 299.266 652.703 291.871 655.991 281.973C659.107 272.595 658.73 247.841 654.067 238.917C648.978 229.179 639.064 224.463 629.044 221.252C623.831 203.828 616.992 188.971 605.396 174.778C600.322 168.567 594.787 162.752 589.703 156.569Z"/>
	<path fill="#031232" transform="scale(0.333333 0.333333)" d="M497.155 78.1308C494.923 85.9023 493.609 93.568 492.377 101.543Q489.646 116.086 486.726 130.593C468.693 135.874 455.748 142.591 440.385 153.042C434.462 155.313 428.715 159.417 423.282 162.693L391.902 181.751C378.531 189.91 364.704 197.299 351.277 205.357C331.477 217.239 312.163 229.65 291.842 240.681L291.983 364.889Q282.926 369.886 273.487 374.119Q264.798 378.798 256.19 383.624Q238.863 392.48 221.635 401.528C215.753 404.604 208.017 407.605 203.081 412.003C200.651 414.168 199.219 417.48 198.257 420.528C198.155 420.849 198.061 421.171 197.964 421.493C196.849 431.619 197.424 442.238 197.465 452.435C192.627 455.027 187.668 457.67 182.596 459.78C177.445 463.493 167.798 467.34 161.75 470.537C173.352 415.665 196.99 365.464 229.639 319.971C234.104 313.748 238.741 307.535 243.749 301.735C247.528 297.357 251.989 293.084 255.257 288.341C255.343 288.217 255.425 288.09 255.509 287.965L255.394 221.855C264.532 216.117 274.227 211.158 283.48 205.592Q330.734 176.935 378.304 148.806Q415.752 126.163 453.467 103.966C467.999 95.2904 482.291 86.2371 497.155 78.1308Z"/>
	<path fill="#F03F21" transform="scale(0.333333 0.333333)" d="M196.543 418.554C209.7 387.019 221.911 362.155 241.39 334.085C245.841 327.67 250.092 320.81 255.854 315.49C256.535 338.187 255.538 360.932 256.19 383.624Q238.863 392.48 221.635 401.528C215.753 404.604 208.017 407.605 203.081 412.003C200.651 414.168 199.219 417.48 198.257 420.528C198.155 420.849 198.061 421.171 197.964 421.493C196.849 431.619 197.424 442.238 197.465 452.435C192.627 455.027 187.668 457.67 182.596 459.78C184.006 455.422 184.955 450.889 186.342 446.508C189.323 437.094 192.922 427.739 196.543 418.554Z"/>
	<path fill="#F03F21" transform="scale(0.333333 0.333333)" d="M273.991 231.964C280.383 227.229 287.432 223.308 294.235 219.19C309.399 210.01 324.861 201.323 339.967 192.048Q395.031 158.299 450.811 125.748C464.631 117.74 478.247 108.939 492.377 101.543Q489.646 116.086 486.726 130.593C468.693 135.874 455.748 142.591 440.385 153.042C434.462 155.313 428.715 159.417 423.282 162.693L391.902 181.751C378.531 189.91 364.704 197.299 351.277 205.357C331.477 217.239 312.163 229.65 291.842 240.681L291.983 364.889Q282.926 369.886 273.487 374.119C272.936 354.761 273.438 335.364 273.5 316Q273.334 273.98 273.991 231.964Z"/>
	<path fill="#031232" transform="scale(0.333333 0.333333)" d="M526.745 77.9443Q607.598 124.439 687.524 172.513L745.376 206.601C753.021 211.166 761.103 215.421 768.486 220.374Q768.491 251.646 768.031 282.914C779.288 298.695 791.614 313.732 802.466 329.807Q807.829 337.856 812.844 346.126Q817.859 354.396 822.516 362.873Q827.174 371.349 831.466 380.017Q835.757 388.684 839.676 397.527Q843.594 406.37 847.131 415.371Q850.669 424.373 853.819 433.517Q856.97 442.662 859.728 451.932Q862.485 461.202 864.845 470.582C857.842 467.341 850.419 464.226 843.826 460.202Q836.181 457.078 828.569 453.877C827.773 444.474 827.692 420.58 825.37 413.288C825.062 412.322 824.563 411.808 823.842 411.131C817.881 408.729 811.971 405.205 806.236 402.269L768.548 382.914C762.961 379.994 757.437 377.108 752.052 373.82C745.382 370.244 738.353 367.301 731.783 363.549C731.026 322.357 731.643 281.034 731.835 239.832C718.955 232.748 706.643 224.844 694.017 217.342L628.357 178.738L604.294 164.596C599.6 161.847 594.763 158.569 589.703 156.569Q586.801 154.361 583.794 152.296Q580.787 150.232 577.683 148.317Q574.579 146.403 571.385 144.641Q568.191 142.88 564.915 141.277Q561.639 139.674 558.289 138.233Q554.939 136.792 551.522 135.516Q548.106 134.24 544.631 133.132Q541.156 132.025 537.631 131.088C534.868 121.42 532.457 111.78 531.385 101.755C530.073 93.7735 529.121 85.701 526.745 77.9443Z"/>
	<path fill="#F03F21" transform="scale(0.333333 0.333333)" d="M768.507 314.031C783.897 333.465 796.949 354.994 809.139 376.53C815.298 387.413 821.529 398.175 826.175 409.817C829.499 418.761 833.005 427.692 835.994 436.752C838.565 444.545 840.612 452.649 843.826 460.202Q836.181 457.078 828.569 453.877C827.773 444.474 827.692 420.58 825.37 413.288C825.062 412.322 824.563 411.808 823.842 411.131C817.881 408.729 811.971 405.205 806.236 402.269L768.548 382.914C768.583 359.968 768.159 336.97 768.507 314.031Z"/>
	<path fill="#F03F21" transform="scale(0.333333 0.333333)" d="M531.385 101.755C542.887 108.767 554.967 114.735 566.578 121.55L695.081 197.744C714.182 209.206 733.621 220.105 752.381 232.13L752.052 373.82C745.382 370.244 738.353 367.301 731.783 363.549C731.026 322.357 731.643 281.034 731.835 239.832C718.955 232.748 706.643 224.844 694.017 217.342L628.357 178.738L604.294 164.596C599.6 161.847 594.763 158.569 589.703 156.569Q586.801 154.361 583.794 152.296Q580.787 150.232 577.683 148.317Q574.579 146.403 571.385 144.641Q568.191 142.88 564.915 141.277Q561.639 139.674 558.289 138.233Q554.939 136.792 551.522 135.516Q548.106 134.24 544.631 133.132Q541.156 132.025 537.631 131.088C534.868 121.42 532.457 111.78 531.385 101.755Z"/>
	<path fill="#031232" transform="scale(0.333333 0.333333)" d="M494.773 138.269C496.402 127.851 504.212 74.972 510.388 70.5386C511.485 69.7511 511.967 70.0628 513.116 70.4318C514.888 72.1022 515.85 73.9791 516.681 76.2607C519.511 84.0298 520.766 92.8965 522.219 101.019C524.443 113.461 526.459 126.022 529.322 138.336C564.006 147.963 589.609 162.964 607.747 195.011C613.981 206.025 618.365 218.103 621.931 230.22C630.438 231.647 639.267 233.934 644.431 241.484Q645.092 242.449 645.655 243.474Q646.218 244.5 646.676 245.576Q647.135 246.652 647.484 247.768Q647.834 248.885 648.072 250.03C649.202 255.581 649.341 271.203 648.313 276.708C646.348 287.226 635.015 295.26 626.809 300.98L631.219 323.05Q724.563 369.501 816.582 418.523C818.276 432.575 817.883 446.818 819.377 460.88C829.164 466.315 839.491 470.891 849.603 475.694Q871.916 486.264 894.108 497.084C901.852 500.862 910.306 504.352 917.663 508.817C925.807 526.525 936.373 543.556 945.781 560.652C949.742 567.849 954.405 575.332 957.235 583.053L893.703 600.627C885.062 602.983 876.461 605.693 867.777 607.86C862.309 630.632 856.222 653.035 847.507 674.823C817.923 748.791 763.624 809.828 695.988 851.289C663.336 871.304 625.572 886.277 588.147 894.386C575.114 897.21 561.775 898.511 548.75 901.262C550.346 895.794 551.699 890.049 553.619 884.699C557.438 869.61 559.469 854.452 560.795 838.963C561.735 826.511 561.373 814.516 560.374 802.072C559.798 798.774 559.641 795.28 559.296 791.941C558.376 786.276 557.536 780.589 556.274 774.987C555.656 771.156 555.298 768.296 556.528 764.501C557.421 762.137 558.475 760.055 558.413 757.477C555.262 764.353 551.147 770.766 547.934 777.645C549.702 787.361 551.346 797.218 551.836 807.091C554.406 858.909 536.742 912.029 512.473 957.082L512.065 956.548C504.825 946.902 500.185 934.663 495.747 923.515C477.101 876.676 468.001 825.325 475.16 775.087C459.96 750.769 457.353 732.992 460.187 704.815C456.723 704.591 453.199 704.665 449.726 704.622L434.962 784.202C428.029 765.322 416.67 733.885 414.742 714.396C413.455 701.399 414.382 687.816 413.735 674.712C408.669 672.793 403.181 671.554 397.964 670.061L368.762 661.704C342.664 654.24 316.587 646.183 290.127 640.081C291.013 643.31 292.282 646.382 293.518 649.489C306.588 652.639 319.532 656.903 332.468 660.589C341.063 663.039 350.384 664.942 358.756 667.987Q375.207 672.358 391.533 677.172C395.03 678.005 402.12 679.196 404.612 681.736C404.364 689.45 405.496 697.454 404.918 705.072L405.077 711.45C405.587 717.388 406.317 723.192 407.447 729.05C408.474 733.011 409.401 737.035 410.667 740.926C412.261 746.018 413.657 751.212 415.34 756.27C418.653 768.1 424.861 779.937 427.387 791.782Q431.72 802.758 435.883 813.799L441.274 794.63Q452.343 797.476 463.524 799.841C463.45 813.061 463.151 826.337 463.994 839.538C465.66 854.36 468.294 868.908 471.414 883.486L476.338 901.197C454.969 898.371 434.094 894.593 413.334 888.653Q409.813 887.634 406.314 886.544Q402.814 885.454 399.337 884.294Q395.86 883.134 392.407 881.904Q388.954 880.674 385.527 879.376Q382.099 878.077 378.698 876.71Q375.298 875.342 371.925 873.907Q368.552 872.471 365.209 870.969Q361.866 869.466 358.554 867.896Q355.242 866.326 351.962 864.69Q348.682 863.054 345.435 861.352Q342.189 859.651 338.977 857.885Q335.765 856.118 332.59 854.287Q329.414 852.457 326.276 850.563Q323.138 848.669 320.039 846.712Q316.939 844.755 313.88 842.737Q310.82 840.718 307.802 838.639Q304.784 836.559 301.808 834.419Q298.832 832.279 295.9 830.08Q292.967 827.881 290.08 825.623Q287.192 823.365 284.351 821.05Q281.509 818.735 278.715 816.363Q275.92 813.991 273.174 811.563Q270.428 809.136 267.731 806.654Q265.034 804.172 262.387 801.636Q259.741 799.1 257.146 796.511Q254.55 793.923 252.008 791.282Q249.465 788.642 246.976 785.951Q244.488 783.261 242.053 780.521Q239.619 777.78 237.24 774.992Q234.861 772.203 232.539 769.367Q230.216 766.532 227.951 763.65Q225.687 760.768 223.48 757.841C189.224 713.155 167.939 663.071 156.244 608.225C141.162 603.391 125.721 599.642 110.522 595.185C96.6026 591.103 82.5241 585.921 68.3144 583.04C77.0941 564.636 87.0728 546.667 96.6347 528.655C99.4703 523.314 103.146 513.927 106.923 509.856C109.908 506.64 128.627 498.343 133.341 495.974C147.175 489.024 160.842 481.758 174.702 474.857C184.971 469.743 195.598 465.024 205.638 459.494C206.404 452.102 206.466 444.775 206.453 437.35C206.445 433.003 206.154 428.449 206.712 424.133C206.906 422.633 207.111 420.818 208.336 419.772C215.656 413.519 226.256 409.462 234.836 405.121L266.461 388.82Q315.898 362.646 365.723 337.217C375.208 332.444 384.459 326.963 394.096 322.545C395.331 314.07 397.491 305.602 398.29 297.101C389.007 292.162 377.378 286.58 374.003 275.691C372.324 270.272 373.837 265.472 374.286 260.07C374.797 253.935 374.521 248.317 377.573 242.698C382.23 234.122 392.505 231.846 401.115 229.281C411.927 195.021 429.487 167.8 462.119 150.834C472.464 145.456 483.425 140.989 494.773 138.269Z"/>
	<path fill="#5098B4" transform="scale(0.333333 0.333333)" d="M516.259 142.515C516.921 144.841 517.612 147.164 519.635 148.675C521.024 151.794 522.889 160.216 521.744 163.481C521.423 164.399 521.65 164.085 520.737 164.512C517.94 161.539 516.35 147.64 515.838 143.14L516.259 142.515Z"/>
	<path fill="#FBFCFA" transform="scale(0.333333 0.333333)" d="M781.23 415.902L807.455 428.638L808.008 434.829C799.444 430.768 791.084 426.17 782.34 422.51C781.967 420.31 781.552 418.11 781.23 415.902Z"/>
	<path fill="#FBFCFA" transform="scale(0.333333 0.333333)" d="M705.884 383.022C705.643 381.341 705.301 379.843 705.839 378.184C710.309 379.037 731.351 390.622 737.155 393.53L738.005 401.102C730.542 393.79 715.698 386.903 705.884 383.022Z"/>
	<path fill="#FBFCFA" transform="scale(0.333333 0.333333)" d="M321.974 377.358C330.897 372.129 340.028 367.435 349.337 362.935L349.367 371.399L349.245 371.53C341.837 373.529 334.691 377.303 327.769 380.565C326.152 381.365 324.431 382.419 322.637 382.666C322.569 380.901 322.224 379.108 321.974 377.358Z"/>
	<path fill="#FBFCFA" transform="scale(0.333333 0.333333)" d="M743.279 396.64C753.856 402.32 764.713 407.406 775.305 413.018L775.963 419.102C765.97 413.797 755.166 409.008 744.68 404.744C744.074 402.036 743.483 399.414 743.279 396.64Z"/>
	<path fill="#F6C762" transform="scale(0.333333 0.333333)" d="M513.357 830.407C516.155 822.459 525.431 811.58 530.426 804.289C532.629 809.413 531.63 823.757 530.47 829.601C530.378 829.371 530.277 829.145 530.195 828.912C529.879 828.009 529.872 827.45 529.921 826.517L529.554 826.109C525.162 826.88 520.55 827.832 516.1 827.975C515.163 828.794 514.55 829.499 513.889 830.554L513.357 830.407Z"/>
	<path fill="#FBFCFA" transform="scale(0.333333 0.333333)" d="M635.096 341.844C643.924 345.968 652.805 350.395 661.355 355.065Q661.792 359.561 662.283 364.052C654.428 359.107 645.54 355.568 637.321 351.208L635.096 341.844Z"/>
	<path fill="#FBFCFA" transform="scale(0.333333 0.333333)" d="M215.904 428.778C223.218 425.352 230.828 421.145 238.504 418.638C239.331 419.757 238.968 422.561 238.991 424.014L238.946 428.024C233.433 429.881 223.54 434.974 217.984 433.669C218.082 439.17 218.645 445.397 217.75 450.809L216.486 450.957C214.863 447.871 215.887 433.155 215.904 428.778Z"/>
	<path fill="#F8AF57" transform="scale(0.333333 0.333333)" d="M217.984 433.669C221.963 430.772 233.955 426.067 238.991 424.014L238.946 428.024C233.433 429.881 223.54 434.974 217.984 433.669Z"/>
	<path fill="#F03F21" transform="scale(0.333333 0.333333)" d="M579.274 785.711Q580.601 791.53 581.769 797.384C574.711 799.548 567.662 800.932 560.374 802.072C559.798 798.774 559.641 795.28 559.296 791.941C565.792 789.367 572.535 787.527 579.274 785.711Z"/>
	<path fill="#FBFCFA" transform="scale(0.333333 0.333333)" d="M385.583 272.618L385.284 266.214C394.048 270.768 403.462 273.48 412.917 276.181C413.037 280.082 413.295 283.935 413.659 287.821C404.557 284.487 391.454 280.603 385.583 272.618Z"/>
	<path fill="#FBFCFA" transform="scale(0.333333 0.333333)" d="M667.972 358.331C678.379 363.379 689.464 368.022 699.344 374.023L700.245 382.666C694.87 382.017 675.587 370.6 669.801 367.357C669.09 364.355 668.473 361.375 667.972 358.331Z"/>
	<path fill="#5098B4" transform="scale(0.333333 0.333333)" d="M506.948 138.02C508.937 138.062 512.391 137.747 514.134 138.727C515.597 139.549 515.761 141.051 516.259 142.515L515.838 143.14C515.028 142.174 514.346 140.823 513.083 140.634C511.809 142.675 508.164 165.44 506.822 170.427L497.675 161.795C498.518 157.613 499.363 153.231 501.329 149.406C501.682 149.677 501.405 149.509 502.299 149.484C504.628 146.04 505.79 141.97 506.948 138.02Z"/>
	<path fill="#F87526" transform="scale(0.333333 0.333333)" d="M217.984 433.669C223.54 434.974 233.433 429.881 238.946 428.024L238.647 440.064C231.803 443.856 224.479 446.87 217.75 450.809C218.645 445.397 218.082 439.17 217.984 433.669Z"/>
	<path fill="#5098B4" transform="scale(0.333333 0.333333)" d="M474.039 704.632C475.34 704.576 476.301 704.511 477.53 705.051C478.224 708.447 475.856 718.365 475.556 722.621C475.335 725.748 475.427 728.91 475.481 732.042Q475.78 743.345 477.48 754.524C478.012 757.893 478.92 761.192 479.293 764.584L478.759 764.328Q478.046 762.916 477.385 761.479Q476.724 760.043 476.116 758.582Q475.509 757.122 474.956 755.64Q474.402 754.159 473.904 752.658Q473.406 751.157 472.963 749.638Q472.521 748.12 472.134 746.586Q471.748 745.052 471.418 743.506Q471.089 741.959 470.816 740.401Q470.544 738.843 470.329 737.276Q470.115 735.709 469.958 734.135Q469.801 732.561 469.702 730.983Q469.603 729.404 469.563 727.823Q469.522 726.242 469.54 724.661Q469.558 723.079 469.634 721.499Q469.71 719.92 469.844 718.344Q469.979 716.768 470.171 715.198C470.478 712.59 470.595 709.4 471.533 706.959C472.112 705.452 472.593 705.249 474.039 704.632Z"/>
	<path fill="#FBFCFA" transform="scale(0.333333 0.333333)" d="M248.285 414.181C255.064 410.207 268.746 402.168 276.031 400.099C276.605 401.668 276.571 403.513 276.681 405.177C276.869 406.305 277.048 407.379 277.091 408.523C267.988 412.325 259.561 418.253 250.434 422.002Q250.12 428.234 250.022 434.473C249.496 434.637 249.054 434.639 248.507 434.662C246.888 430.998 248.173 418.82 248.285 414.181Z"/>
	<defs>
		<linearGradient id="gradient_0" gradientUnits="userSpaceOnUse" x1="262.94931" y1="418.93753" x2="270.8768" y2="404.46719">
			<stop offset="0" stop-color="#FFB848"/>
			<stop offset="1" stop-color="#FFD160"/>
		</linearGradient>
	</defs>
	<path fill="url(#gradient_0)" transform="scale(0.333333 0.333333)" d="M276.681 405.177C276.869 406.305 277.048 407.379 277.091 408.523C267.988 412.325 259.561 418.253 250.434 422.002C251.759 414.862 271.716 410.401 276.681 405.177Z"/>
	<path fill="#FBFCFA" transform="scale(0.333333 0.333333)" d="M357.107 359.252C367.523 352.684 378.928 347.332 389.887 341.716C389.285 344.461 388.74 347.185 388.313 349.964L387.767 352.171C377.296 357.768 366.666 362.975 356.506 369.143L356.427 366.467L357.107 359.252Z"/>
	<path fill="#F6C762" transform="scale(0.333333 0.333333)" d="M356.427 366.467C361.779 361.527 380.841 353.564 388.313 349.964L387.767 352.171C377.296 357.768 366.666 362.975 356.506 369.143L356.427 366.467Z"/>
	<path fill="#FBFCFA" transform="scale(0.333333 0.333333)" d="M314.946 380.6L315.061 387.182L315.097 389.924C306.205 393.33 297.312 398.024 289.035 402.703C289.015 406.478 289.287 410.546 288.703 414.266L288.458 415.658C287.633 416.04 287.444 416.107 286.492 416.092C284.378 413.126 285.467 399.163 285.516 395.009C295.472 390.446 304.818 384.88 314.946 380.6Z"/>
	<path fill="#F6C762" transform="scale(0.333333 0.333333)" d="M315.061 387.182L315.097 389.924C306.205 393.33 297.312 398.024 289.035 402.703C289.015 406.478 289.287 410.546 288.703 414.266C288.313 409.721 288.547 405.011 288.536 400.445C295.499 395.794 307.019 389.346 315.061 387.182Z"/>
	<path fill="#F87526" transform="scale(0.333333 0.333333)" d="M277.091 408.523L277.348 419.953Q268.43 425.087 259.244 429.723C256.251 431.255 252.811 432.625 250.022 434.473Q250.12 428.234 250.434 422.002C259.561 418.253 267.988 412.325 277.091 408.523Z"/>
	<path fill="#F87526" transform="scale(0.333333 0.333333)" d="M289.035 402.703C297.312 398.024 306.205 393.33 315.097 389.924C315.133 393.896 315.117 397.875 315.207 401.846C306.336 406.521 297.206 410.762 288.458 415.658L288.703 414.266C289.287 410.546 289.015 406.478 289.035 402.703Z"/>
	<path fill="#F87526" transform="scale(0.333333 0.333333)" d="M349.245 371.53L349.367 371.399L349.492 383.951C340.603 388.422 331.559 392.636 322.794 397.344C322.755 393.063 322.793 388.765 322.593 384.488L322.637 382.666C324.431 382.419 326.152 381.365 327.769 380.565C334.691 377.303 341.837 373.529 349.245 371.53Z"/>
	<path fill="#F6C762" transform="scale(0.333333 0.333333)" d="M349.245 371.53C349.101 372.405 349.238 373.304 348.485 373.86C344.477 376.819 333.715 380.265 328.495 383.107C326.95 383.989 325.142 385.335 323.345 385.472L322.593 384.488L322.637 382.666C324.431 382.419 326.152 381.365 327.769 380.565C334.691 377.303 341.837 373.529 349.245 371.53Z"/>
	<path fill="#F87526" transform="scale(0.333333 0.333333)" d="M356.506 369.143C366.666 362.975 377.296 357.768 387.767 352.171Q386.263 359.625 384.394 366.995C374.95 371.454 365.754 376.67 356.167 380.781C356.306 376.905 356.499 373.022 356.506 369.143Z"/>
	<path fill="#FBFCFA" transform="scale(0.333333 0.333333)" d="M511.443 93.0158C515.15 111.45 517.539 130.006 519.635 148.675C517.612 147.164 516.921 144.841 516.259 142.515C515.761 141.051 515.597 139.549 514.134 138.727C512.391 137.747 508.937 138.062 506.948 138.02C505.79 141.97 504.628 146.04 502.299 149.484C501.405 149.509 501.682 149.677 501.329 149.406C506.218 131.968 508.938 111.043 511.443 93.0158Z"/>
	<path fill="#9BCBDB" transform="scale(0.333333 0.333333)" d="M511.497 704.077C512.667 704.323 514.143 704.284 514.833 705.281C515.842 738.499 514.328 771.886 515.296 805.11L511.312 812.952C509.939 800.042 510.931 786.168 510.976 773.137Q510.864 738.604 511.497 704.077Z"/>
	<path fill="#F87526" transform="scale(0.333333 0.333333)" d="M637.321 351.208C645.54 355.568 654.428 359.107 662.283 364.052C663.906 369.992 664.026 376.807 665.279 382.939C657.237 379.363 649.41 375.202 641.541 371.259Q639.265 361.268 637.321 351.208Z"/>
	<path fill="#FBFCFA" transform="scale(0.333333 0.333333)" d="M398.94 239.456C399.642 241.463 400.537 243.418 401.362 245.378C405.663 248.395 409.957 250.731 414.798 252.771C414.447 257.998 414.059 262.691 415.416 267.833C409.741 266.14 404.022 264.507 398.472 262.434C394.217 260.846 387.67 258.659 385.809 254.107C384.935 251.97 385.099 249.412 386.112 247.35C388.429 242.634 394.321 240.94 398.94 239.456Z"/>
	<path fill="#F87526" transform="scale(0.333333 0.333333)" d="M782.34 422.51C791.084 426.17 799.444 430.768 808.008 434.829C808.412 441.803 808.661 448.847 809.631 455.769C801.452 451.951 793.201 448.159 785.379 443.645C783.943 436.746 783.191 429.513 782.34 422.51Z"/>
	<path fill="#F87526" transform="scale(0.333333 0.333333)" d="M669.801 367.357C675.587 370.6 694.87 382.017 700.245 382.666C701.559 389.317 701.939 396.145 703.187 402.832C693.136 398.176 682.764 393.082 673.422 387.143C671.78 380.659 670.718 373.978 669.801 367.357Z"/>
	<path fill="#F87526" transform="scale(0.333333 0.333333)" d="M744.68 404.744C755.166 409.008 765.97 413.797 775.963 419.102C777.347 425.876 777.688 433.102 778.133 439.996C767.99 435.06 758.169 429.494 748.05 424.503C746.474 418.055 745.606 411.315 744.68 404.744Z"/>
	<path fill="#377D9C" transform="scale(0.333333 0.333333)" d="M652.712 436.03C660.099 438.701 667.532 441.543 674.537 445.109L675.56 444.649C675.611 446.171 675.627 447.836 676.604 449.105C678.757 458.069 680.644 467.292 683.577 476.031C677.46 474.325 671.379 472.456 665.287 470.661C660.371 459.411 656.547 447.68 652.712 436.03Z"/>
	<path fill="#F87526" transform="scale(0.333333 0.333333)" d="M705.884 383.022C715.698 386.903 730.542 393.79 738.005 401.102Q739.095 411.218 740.49 421.296L709.933 404.88L705.884 383.022Z"/>
	<path fill="#377D9C" transform="scale(0.333333 0.333333)" d="M642.321 396.829C650.562 399.563 658.561 403.572 666.464 407.165C668.384 417.315 671.394 427.232 673.482 437.351Q662.351 432.512 651.041 428.108C647.59 417.876 645.079 407.266 642.321 396.829Z"/>
	<path fill="#5098B4" transform="scale(0.333333 0.333333)" d="M596.84 675.198L597.335 675.744C597.806 680.69 597.558 685.747 597.522 690.712C597.398 708.051 595.543 724.049 592.262 741.075C591.682 744.091 591.373 748.949 589.846 751.506L589.458 749.884C587.543 735.751 586.252 721.148 585.858 706.881C585.589 697.119 585.856 687.318 585.697 677.545C589.405 676.58 593.054 675.789 596.84 675.198Z"/>
	<path fill="#5098B4" transform="scale(0.333333 0.333333)" d="M491.356 653.75Q525.659 653.499 559.962 653.632L560.014 661.016L532.75 660.985L464.035 660.557L463.99 653.869L491.356 653.75Z"/>
	<path fill="#5098B4" transform="scale(0.333333 0.333333)" d="M537.004 704.429L549.131 704.652C549.174 716.963 548.191 730.518 550.76 742.554Q547.032 753.046 542.337 763.143C540.691 766.779 538.996 770.306 537.014 773.772C536.416 750.708 536.926 727.506 537.004 704.429Z"/>
	<path fill="#5098B4" transform="scale(0.333333 0.333333)" d="M474.985 633.246L560.896 632.957L560.699 640.326L550.009 640.418L463.516 640.47L463.499 633.509L474.985 633.246Z"/>
	<path fill="#5098B4" transform="scale(0.333333 0.333333)" d="M540.388 676.243L560.067 676.113L560.4 684.227C535.069 683.425 509.597 683.716 484.25 683.627L463.109 683.626L463.192 676.496L540.388 676.243Z"/>
	<path fill="#FBFCFA" transform="scale(0.333333 0.333333)" d="M539.3 791.079C543.944 831.597 534.612 873.884 521.191 911.988C520.221 909.677 523.915 892.656 524.446 888.971C526.14 877.201 527.218 865.336 528.438 853.509C529.249 845.648 530.544 837.501 530.47 829.601C531.63 823.757 532.629 809.413 530.426 804.289C533.397 799.908 536.504 795.573 539.3 791.079Z"/>
	<path fill="#FBFCFA" transform="scale(0.333333 0.333333)" d="M558.576 351.034L560.266 350.041L560.957 350.302C562.715 357.864 561.89 368.17 561.952 376.097Q562.115 402.56 562.007 429.023L561.415 617.46L512.828 617.404C517.565 615.925 551.919 616.536 559.369 616.132C558.656 600.237 559.331 584.114 559.366 568.191Q559.539 526.301 558.924 484.415C558.185 470.174 558.556 455.752 558.534 441.487L558.414 356.23L558.576 351.034Z"/>
	<path fill="#FBFCFA" transform="scale(0.333333 0.333333)" d="M414.089 303.433C418.591 305.452 422.942 307.799 427.455 309.806C435.242 316.064 448.923 322.773 457.868 327.907Q474.04 337.331 490.413 346.402C497.525 350.34 504.854 354.695 512.509 357.467C519.721 353.653 526.91 349.712 534.262 346.178C541.972 342.472 549.862 339.122 557.518 335.305C565.947 331.102 600.773 310.937 607.435 310.599C597.935 315.475 588.685 321.137 579.382 326.389C557.274 338.87 534.83 351.636 511.91 362.567C499.288 357.603 487.141 349.521 475.411 342.766C454.845 330.921 434.31 319.063 412.858 308.869L414.089 303.433Z"/>
	<path fill="#5098B4" transform="scale(0.333333 0.333333)" d="M427.105 658.81C429.947 661.047 436.525 672.534 439.27 676.35C439.434 686.155 439.739 696.091 439.033 705.879C438.101 718.805 435.555 731.651 433.25 744.391L432.441 749.3C429.64 739.779 426.977 728.414 426.062 718.586C425.297 710.377 425.967 701.861 426.18 693.623C426.48 682.015 426.662 670.415 427.105 658.81Z"/>
	<path fill="#FBFCFA" transform="scale(0.333333 0.333333)" d="M484.388 785.522C488.114 791.063 491.274 797.429 494.408 803.345C493.35 815.905 494.61 828.464 495.534 840.988C497.223 863.907 499.199 887.058 504.335 909.499C504.684 911.025 506.201 915.632 505.248 916.915C489.218 879.249 480.97 826.31 484.388 785.522Z"/>
	<path fill="#5098B4" transform="scale(0.333333 0.333333)" d="M322.973 423.254C330.038 416.865 373.87 394.492 384.07 390.691C381.664 404.081 378.508 416.79 373.801 429.571C367.649 432.426 350.003 441.512 343.412 440.671C345.895 438.856 348.811 437.598 351.555 436.219C354.158 427.253 357.973 418.502 361.454 409.852C349.424 413.524 334.753 421.206 322.973 423.254Z"/>
	<path fill="#377D9C" transform="scale(0.333333 0.333333)" d="M511.497 704.077L526.547 704.023Q526.316 745.354 526.961 786.68C523.136 792.614 519.731 799.699 515.296 805.11C514.328 771.886 515.842 738.499 514.833 705.281C514.143 704.284 512.667 704.323 511.497 704.077Z"/>
	<path fill="#5098B4" transform="scale(0.333333 0.333333)" d="M488.783 704.396L502.887 704.476Q503.141 719.125 503.985 733.751C504.571 743.253 510.159 803.188 508.777 806.724L508.077 805.936C487.526 772.299 481.43 743.169 488.783 704.396Z"/>
	<path fill="#FBFCFA" transform="scale(0.333333 0.333333)" d="M462.564 348.924Q465.409 351.071 468.288 353.172C467.241 411.234 468.368 469.36 467.701 527.437C467.567 539.025 467.729 550.664 467.376 562.243Q467.078 589.168 467.106 616.096C471.966 616.112 476.825 616.068 481.672 616.46C476.866 617.4 471.392 617.06 466.477 617.139C465.304 617.179 464.486 617.142 463.368 616.773C463.024 616.178 462.87 615.736 462.841 615.044C462.247 600.894 462.593 586.603 462.566 572.435L462.391 495.437L462.03 409.398C461.982 389.251 461.789 369.059 462.564 348.924Z"/>
	<path fill="#FBFCFA" transform="scale(0.333333 0.333333)" d="M422.08 229.708C423.779 222.429 425.97 215.272 429.06 208.454C441.798 180.345 465.468 161.389 493.908 150.835C493.974 155.348 494.13 159.873 493.76 164.376C475.171 175.898 459.912 188.943 449.14 208.357C446.091 213.853 443.367 219.569 441.911 225.71C441.324 228.188 440.902 230.715 440.463 233.223C434.508 231.665 428.144 230.841 422.08 229.708Z"/>
	<path fill="#377D9C" transform="scale(0.333333 0.333333)" d="M592.877 332.003C598.146 328.241 604.564 324.358 610.524 321.863C617.832 357.408 623.405 394.18 633.548 428.982C625.325 428.984 617.031 428.766 608.819 429.139C603.775 404.701 600.639 379.786 596.501 355.166C595.243 347.682 594.904 339.253 592.877 332.003Z"/>
	<path fill="#377D9C" transform="scale(0.333333 0.333333)" d="M609.757 434.506L634.826 434.52C642.228 461.564 651.804 485.675 661.137 511.873C655.932 519.564 650.869 527.448 645.381 534.935C637.37 517.073 630.335 498.289 623.784 479.836C621.465 473.303 615.351 451.271 612.856 447.591C611.149 444.131 610.424 438.351 609.757 434.506Z"/>
	<path fill="#5098B4" transform="scale(0.333333 0.333333)" d="M592.877 332.003C594.904 339.253 595.243 347.682 596.501 355.166C600.639 379.786 603.775 404.701 608.819 429.139C597.875 429.645 586.69 429.199 575.722 429.186L575.449 374.642C575.42 364.1 574.837 353.145 575.797 342.657C580.806 338.629 587.382 335.468 592.877 332.003Z"/>
	<path fill="#5098B4" transform="scale(0.333333 0.333333)" d="M431.492 328.386C437.472 332.163 443.427 336.306 449.64 339.668L449.494 429.719C439.703 429.673 425.133 430.74 416.021 429.476C418.609 422.578 419.507 413.843 420.872 406.554C425.688 380.835 430.673 354.59 431.492 328.386Z"/>
	<path fill="#FBFCFA" transform="scale(0.333333 0.333333)" d="M387.258 434.311C394.724 433.519 402.693 434.111 410.206 434.248C405.548 452.975 399.818 471.452 394.389 489.969C391.981 498.182 388.905 506.693 387.254 515.073L387.949 515.825C387.349 517.543 387.02 518.042 387.771 519.8C388.387 519.144 388.753 518.632 389.215 517.876L389.689 518.06C388.068 522.925 385.883 527.605 383.64 532.212L382.988 532.466L382.729 532.243L382.534 532.773C385.833 543.689 411.428 579.146 410.845 586.556C393.363 561.775 378.553 535.073 361.931 509.719C363.898 501.2 368.223 491.627 371.181 483.203C376.879 466.979 382.261 450.766 387.258 434.311Z"/>
	<path fill="#5098B4" transform="scale(0.333333 0.333333)" d="M387.258 434.311C394.724 433.519 402.693 434.111 410.206 434.248C405.548 452.975 399.818 471.452 394.389 489.969C391.981 498.182 388.905 506.693 387.254 515.073L387.949 515.825C387.349 517.543 387.02 518.042 387.771 519.8C388.387 519.144 388.753 518.632 389.215 517.876L389.689 518.06C388.068 522.925 385.883 527.605 383.64 532.212L382.988 532.466L382.729 532.243L382.534 532.773C381.602 531.037 381.081 528.982 380.46 527.114C383.103 512.688 388.559 498.447 392.743 484.391C396.567 471.541 402.815 445.747 408.719 434.565C401.603 434.564 394.351 434.83 387.258 434.311Z"/>
	<path fill="#000113" transform="scale(0.333333 0.333333)" d="M387.254 515.073L387.949 515.825C387.349 517.543 387.02 518.042 387.771 519.8C388.387 519.144 388.753 518.632 389.215 517.876L389.689 518.06C388.068 522.925 385.883 527.605 383.64 532.212L382.988 532.466L382.729 532.243C384.015 526.529 385.125 520.539 387.254 515.073Z"/>
	<path fill="#FBFCFA" transform="scale(0.333333 0.333333)" d="M410.903 314.892C417.694 319.501 424.713 323.759 431.492 328.386C430.673 354.59 425.688 380.835 420.872 406.554C419.507 413.843 418.609 422.578 416.021 429.476L415.006 428.674C415.058 424.905 416.463 420.499 417.167 416.762C418.843 407.871 420.475 398.923 421.801 389.973Q423.358 378.852 424.642 367.696C424.94 365.055 424.793 362.018 425.415 359.467C425.668 358.431 425.82 357.89 425.688 356.8C424.067 360.284 420.632 382.32 419.471 388.246Q415.508 409.165 410.124 429.765Q399.349 429.917 388.575 429.751C392.026 416.777 394.237 403.494 396.885 390.343C398.744 381.11 401.111 371.991 402.892 362.74C405.95 346.863 408.254 330.84 410.903 314.892Z"/>
	<path fill="#135D76" transform="scale(0.333333 0.333333)" d="M332.856 520.049C333.332 519.987 333.921 520.137 334.399 520.201C335.886 523.994 333.939 532.577 333.482 536.764C319.16 539.851 305.015 543.812 290.721 547.047C263.378 553.237 235.932 558.867 208.626 565.249C194.375 568.58 180.061 571.477 165.765 574.594C157.847 576.32 149.529 578.983 141.492 579.674C136.029 580.143 130.217 578.497 124.867 577.452L117.264 576.243C127.591 573.379 138.187 571.335 148.58 568.684L224.953 548.895C261.019 539.645 296.829 529.443 332.856 520.049Z"/>
	<defs>
		<linearGradient id="gradient_1" gradientUnits="userSpaceOnUse" x1="497.09583" y1="928.7616" x2="514.9444" y2="809.92035">
			<stop offset="0" stop-color="#FB4D09"/>
			<stop offset="1" stop-color="#E0A444"/>
		</linearGradient>
	</defs>
	<path fill="url(#gradient_1)" transform="scale(0.333333 0.333333)" d="M494.408 803.345C497.154 807.379 511.034 829.766 513.357 830.407L513.889 830.554C514.55 829.499 515.163 828.794 516.1 827.975C520.55 827.832 525.162 826.88 529.554 826.109L529.921 826.517C529.872 827.45 529.879 828.009 530.195 828.912C530.277 829.145 530.378 829.371 530.47 829.601C530.544 837.501 529.249 845.648 528.438 853.509C527.218 865.336 526.14 877.201 524.446 888.971C523.915 892.656 520.221 909.677 521.191 911.988C518.766 919.469 515.564 926.582 512.364 933.752C509.58 928.264 507.224 922.742 505.248 916.915C506.201 915.632 504.684 911.025 504.335 909.499C499.199 887.058 497.223 863.907 495.534 840.988C494.61 828.464 493.35 815.905 494.408 803.345Z"/>
	<defs>
		<linearGradient id="gradient_2" gradientUnits="userSpaceOnUse" x1="533.7688" y1="308.2637" x2="518.60864" y2="250.10255">
			<stop offset="0" stop-color="#E8772E"/>
			<stop offset="1" stop-color="#FFA443"/>
		</linearGradient>
	</defs>
	<path fill="url(#gradient_2)" transform="scale(0.333333 0.333333)" d="M412.917 276.181C470.173 291.116 530.856 291.97 589.057 282.106C603.208 279.707 619.505 277.099 632.172 270.118C634.076 269.069 636.898 266.654 638.86 268.076C639.277 269.525 639.104 270.325 638.33 271.633C630.556 284.771 603.796 291.614 589.627 294.756Q584.187 295.906 578.714 296.888Q573.24 297.869 567.74 298.68Q562.239 299.491 556.715 300.132Q551.192 300.773 545.651 301.242Q540.111 301.711 534.558 302.009Q529.006 302.306 523.447 302.431Q517.888 302.557 512.328 302.51Q506.767 302.463 501.211 302.244Q495.655 302.025 490.108 301.634Q484.562 301.243 479.03 300.681Q473.498 300.118 467.986 299.385Q462.474 298.651 456.988 297.748Q451.501 296.844 446.045 295.771Q440.59 294.697 435.17 293.456Q429.75 292.214 424.371 290.805Q418.992 289.396 413.659 287.821C413.295 283.935 413.037 280.082 412.917 276.181Z"/>
	<path fill="#F8AF57" transform="scale(0.333333 0.333333)" d="M623.763 240.11C628.668 240.754 633.457 241.768 636.599 245.984C637.778 247.565 639.326 249.845 638.694 251.904C636.903 257.736 622.897 263.869 617.726 265.728C566.586 284.111 467.576 282.964 415.416 267.833C414.059 262.691 414.447 257.998 414.798 252.771C430.277 258.096 445.41 261.896 461.617 264.27C503.526 270.406 553.728 269.679 594.829 258.729C601.429 256.97 608.269 255.184 614.422 252.173C617.581 250.627 621.776 247.984 623.057 244.511C623.56 243.146 623.639 241.547 623.763 240.11Z"/>
	<defs>
		<linearGradient id="gradient_3" gradientUnits="userSpaceOnUse" x1="537.66901" y1="347.98105" x2="496.33099" y2="277.51895">
			<stop offset="0" stop-color="#34799F"/>
			<stop offset="1" stop-color="#4195AE"/>
		</linearGradient>
	</defs>
	<path fill="url(#gradient_3)" transform="scale(0.333333 0.333333)" d="M427.455 309.806C427.607 309.838 427.759 309.869 427.91 309.904C435.28 311.574 442.256 314.459 449.762 315.967C486.706 323.392 526.5 323.426 563.776 318.552C572.796 317.372 582.309 316.111 591.09 313.743C595.599 312.527 600.218 309.842 604.757 309.081C606.055 308.864 607.834 308.831 608.921 309.643C608.099 310.57 608.598 310.257 607.435 310.599C600.773 310.937 565.947 331.102 557.518 335.305C549.862 339.122 541.972 342.472 534.262 346.178C526.91 349.712 519.721 353.653 512.509 357.467C504.854 354.695 497.525 350.34 490.413 346.402Q474.04 337.331 457.868 327.907C448.923 322.773 435.242 316.064 427.455 309.806Z"/>
	<path fill="#135D76" transform="scale(0.333333 0.333333)" d="M690.271 519.902C706.33 524.636 722.72 528.538 738.919 532.78Q793.508 547.466 848.478 560.659C860.815 563.75 873.239 566.48 885.613 569.423C892.674 571.103 900.18 572.44 906.863 575.291L894.381 578.384C891.309 579.136 887.976 580.253 884.799 579.969C879.238 579.471 873.472 577.793 867.991 576.677L832.901 569.573L730.136 547.536C713.251 543.852 696.382 539.771 679.393 536.61C682.723 530.854 687.412 525.956 690.271 519.902Z"/>
	<path fill="#5098B4" transform="scale(0.333333 0.333333)" d="M351.355 483.586L351.718 484.038C347.083 492.832 343.237 502.163 338.023 510.626C326.886 514.277 315.302 516.934 303.988 520.014L235.038 538.638L157.773 558.977C140.763 563.432 110.98 572.474 94.5604 572.552L94.1178 571.768C95.2232 568.459 97.0514 565.409 98.7038 562.346C107.789 558.893 117.457 556.388 126.788 553.621C138.254 550.22 149.659 546.59 161.084 543.049L293.305 501.976L326.166 491.763C334.57 489.208 343.224 486.928 351.355 483.586Z"/>
	<path fill="#FBFCFA" transform="scale(0.333333 0.333333)" d="M666.464 407.165C685.339 414.695 703.733 424.371 722.18 432.967L853.741 495.644C870.593 503.741 887.375 513.067 904.63 520.194C910.952 531.263 918.183 542.878 923.018 554.664C919.938 553.352 916.767 551.724 913.604 550.671C913.533 550.536 913.473 550.394 913.392 550.265C910.054 544.936 898.05 530.872 893.176 527.458C887.14 523.229 878.677 520.499 871.888 517.548Q851.445 508.454 830.581 500.373C820.09 496.347 809.416 492.807 798.931 488.769C787.579 484.396 776.223 478.471 764.517 475.242Q742.513 465.878 720.399 456.777C704.799 450.188 689.306 443.392 673.482 437.351C671.394 427.232 668.384 417.315 666.464 407.165Z"/>
	<path fill="#5098B4" transform="scale(0.333333 0.333333)" d="M668.62 480.21C720.787 494.805 772.064 513.042 823.704 529.388L891.571 550.831C903.338 554.514 915.612 557.489 927.034 562.107C929.466 565.693 931.264 569.548 933.042 573.485C884.789 563.944 837.593 550.827 789.984 538.606C772.72 534.174 755.53 529.344 738.245 525.025C718.954 520.205 699.467 515.856 680.439 510.059C676.269 500.226 672.688 490.099 668.62 480.21Z"/>
	<path fill="#FBFCFA" transform="scale(0.333333 0.333333)" d="M322.973 423.254C334.753 421.206 349.424 413.524 361.454 409.852C357.973 418.502 354.158 427.253 351.555 436.219C348.811 437.598 345.895 438.856 343.412 440.671Q286.575 464.43 229.42 487.41C218.126 492.375 206.515 496.548 195.038 501.063L160.402 515.013C153.214 517.827 135.508 523.713 130.14 527.618C126.38 530.353 123.222 534.698 120.129 538.183C115.285 543.641 110.297 548.796 104.494 553.247L103.259 553.52L102.822 552.99Q110.517 536.526 118.674 520.286C159.293 502.253 198.795 481.579 238.829 462.285C266.655 448.874 295.314 436.987 322.973 423.254Z"/>
	<path fill="#5098B4" transform="scale(0.333333 0.333333)" d="M675.56 444.649C693.486 451.078 711.192 458.089 729.15 464.432C740.27 468.36 752.907 471.425 763.409 476.727L764.517 475.242C776.223 478.471 787.579 484.396 798.931 488.769C809.416 492.807 820.09 496.347 830.581 500.373Q851.445 508.454 871.888 517.548C878.677 520.499 887.14 523.229 893.176 527.458C898.05 530.872 910.054 544.936 913.392 550.265C913.473 550.394 913.533 550.536 913.604 550.671C893.027 543.693 872.146 537.528 851.465 530.845L753.296 498.744C730.03 491.262 706.589 484.279 683.577 476.031C680.644 467.292 678.757 458.069 676.604 449.105C675.627 447.836 675.611 446.171 675.56 444.649Z"/>
	<path fill="#FBFCFA" transform="scale(0.333333 0.333333)" d="M675.56 444.649C693.486 451.078 711.192 458.089 729.15 464.432C740.27 468.36 752.907 471.425 763.409 476.727C777.567 483.053 792.056 488.333 806.025 495.104C791.938 491.962 777.234 485.577 763.537 480.765Q719.832 465.59 676.604 449.105C675.627 447.836 675.611 446.171 675.56 444.649Z"/>
	<path fill="#5098B4" transform="scale(0.333333 0.333333)" d="M229.406 488.139C234.423 486.528 239.396 484.347 244.348 482.509L274.603 471.477L370.534 437.336L371.133 437.7L370.734 439.654C365.479 451.02 361.16 462.781 356.055 474.205Q264.384 501.938 173.243 531.365L122.553 547.729C117.091 549.466 110.086 552.692 104.494 553.247C110.297 548.796 115.285 543.641 120.129 538.183C123.222 534.698 126.38 530.353 130.14 527.618C135.508 523.713 153.214 517.827 160.402 515.013L195.038 501.063C206.515 496.548 218.126 492.375 229.42 487.41L229.406 488.139Z"/>
	<path fill="#FBFCFA" transform="scale(0.333333 0.333333)" d="M229.406 488.139C234.423 486.528 239.396 484.347 244.348 482.509L274.603 471.477L370.534 437.336L371.133 437.7L370.734 439.654C365.86 440.04 346.407 449.319 340.136 451.665Q300.671 466.228 260.875 479.862C247.606 484.362 233.709 489.872 219.985 492.685C222.952 491.147 226.758 490.036 229.406 488.139Z"/>
	<path fill="#FBFCFA" transform="scale(0.333333 0.333333)" d="M735.963 639.71C736.176 641.898 733.912 645.467 732.858 647.5C730.701 652.238 726.899 662.46 723.723 666.056C721.138 670.026 715.198 678.695 714.31 683.002C711.158 687.918 707.887 694.306 703.344 698.017C674.889 698.404 646.459 699.202 617.995 699.298C617.739 703.917 617.731 708.721 616.792 713.257C615.989 718.582 615.022 724.035 613.568 729.228C612.24 734.767 611.02 740.359 609.469 745.839C608.071 752.097 606.763 758.554 604.704 764.627C602.226 774.878 598.655 784.973 595.412 795.01C592.237 802.638 589.58 810.447 586.493 818.1L581.769 797.384Q580.601 791.53 579.274 785.711C572.535 787.527 565.792 789.367 559.296 791.941C558.376 786.276 557.536 780.589 556.274 774.987C555.656 771.156 555.298 768.296 556.528 764.501C557.421 762.137 558.475 760.055 558.413 757.477Q560.308 752.825 562.156 748.154C564.46 740.504 563.586 732.247 563.483 724.33C563.032 717.882 563.046 711.429 563.009 704.968L571.229 704.867C572.951 713.541 575.108 722.119 576.784 730.81C580.587 750.529 583.838 770.274 587.976 789.943C591.236 780.422 593.874 770.586 596.621 760.902C601.831 742.53 607.041 724.073 608.555 704.951C609.397 694.305 608.682 683.559 608.474 672.894L735.963 639.71Z"/>
	<path fill="#F6C762" transform="scale(0.333333 0.333333)" d="M563.483 724.33C565.633 725.828 565.618 726.942 566.062 729.433C567.14 735.478 568.374 741.403 569.874 747.361Q566.005 747.665 562.156 748.154C564.46 740.504 563.586 732.247 563.483 724.33Z"/>
	<path fill="#F03F21" transform="scale(0.333333 0.333333)" d="M562.156 748.154Q566.005 747.665 569.874 747.361C571.369 752.431 572.514 757.585 573.706 762.733C568.16 763.52 562.132 764.844 556.528 764.501C557.421 762.137 558.475 760.055 558.413 757.477Q560.308 752.825 562.156 748.154Z"/>
	<defs>
		<linearGradient id="gradient_4" gradientUnits="userSpaceOnUse" x1="568.73859" y1="789.01501" x2="566.64008" y2="773.59326">
			<stop offset="0" stop-color="#D0261E"/>
			<stop offset="1" stop-color="#E44A28"/>
		</linearGradient>
	</defs>
	<path fill="url(#gradient_4)" transform="scale(0.333333 0.333333)" d="M573.706 762.733L575.75 771.374Q577.334 778.586 579.274 785.711C572.535 787.527 565.792 789.367 559.296 791.941C558.376 786.276 557.536 780.589 556.274 774.987C555.656 771.156 555.298 768.296 556.528 764.501C562.132 764.844 568.16 763.52 573.706 762.733Z"/>
	<path fill="#F87526" transform="scale(0.333333 0.333333)" d="M573.706 762.733L575.75 771.374C569.419 772.747 562.388 773.104 556.274 774.987C555.656 771.156 555.298 768.296 556.528 764.501C562.132 764.844 568.16 763.52 573.706 762.733Z"/>
	<path fill="#F6C762" transform="scale(0.333333 0.333333)" d="M672.923 665.023C685.781 660.566 698.855 656.954 711.944 653.27C718.875 651.319 725.804 648.914 732.858 647.5C730.701 652.238 726.899 662.46 723.723 666.056Q707.285 665.717 690.844 665.585C684.971 665.519 678.731 665.89 672.923 665.023Z"/>
	<path fill="#F87526" transform="scale(0.333333 0.333333)" d="M672.923 665.023C678.731 665.89 684.971 665.519 690.844 665.585Q707.285 665.717 723.723 666.056C721.138 670.026 715.198 678.695 714.31 683.002C710.844 681.973 658.194 682.502 651.214 682.43C640.261 682.989 628.585 682.782 617.664 681.78C617.756 680.659 617.796 679.952 618.418 678.995C626.454 676.039 635.747 673.872 644.182 672.393C646.212 671.447 649.113 671.065 651.324 670.48Q662.079 667.574 672.923 665.023Z"/>
	<path fill="#F8AF57" transform="scale(0.333333 0.333333)" d="M617.664 681.78C617.756 680.659 617.796 679.952 618.418 678.995C626.454 676.039 635.747 673.872 644.182 672.393C641.165 675.063 634.668 675.265 630.788 676.448L630.747 681.535C637.301 681.392 644.817 680.933 651.214 682.43C640.261 682.989 628.585 682.782 617.664 681.78Z"/>
	<path fill="#F6C762" transform="scale(0.333333 0.333333)" d="M617.664 681.78C628.585 682.782 640.261 682.989 651.214 682.43C658.194 682.502 710.844 681.973 714.31 683.002C711.158 687.918 707.887 694.306 703.344 698.017C674.889 698.404 646.459 699.202 617.995 699.298C618.081 693.772 618.706 687.173 617.664 681.78Z"/>
	<path fill="#F03F21" transform="scale(0.333333 0.333333)" d="M735.963 639.71Q745.731 637.253 755.572 635.107C747.658 656.178 738.228 673.33 725.838 692.09C698.204 733.93 665.827 765.13 619.747 786.041C611.839 789.629 603.722 792.506 595.412 795.01C598.655 784.973 602.226 774.878 604.704 764.627C606.763 758.554 608.071 752.097 609.469 745.839C611.02 740.359 612.24 734.767 613.568 729.228C615.022 724.035 615.989 718.582 616.792 713.257C617.731 708.721 617.739 703.917 617.995 699.298C646.459 699.202 674.889 698.404 703.344 698.017C707.887 694.306 711.158 687.918 714.31 683.002C715.198 678.695 721.138 670.026 723.723 666.056C726.899 662.46 730.701 652.238 732.858 647.5C733.912 645.467 736.176 641.898 735.963 639.71Z"/>
	<path fill="#F87526" transform="scale(0.333333 0.333333)" d="M608.154 764.312C611.395 762.498 616.114 762.202 619.623 760.613C630.659 755.615 640.783 749.182 652.297 745.183C648.066 753.325 614.911 765.325 605.713 769.072L605.933 768.445L604.743 769.234C604.032 768.23 604.136 768.763 604.296 767.668C605.687 766.11 606.685 765.292 608.718 764.633L608.154 764.312Z"/>
	<path fill="#F6C762" transform="scale(0.333333 0.333333)" d="M609.469 745.839C614.138 745.559 652.943 744.348 653.895 744.632L652.297 745.183C640.783 749.182 630.659 755.615 619.623 760.613C616.114 762.202 611.395 762.498 608.154 764.312L604.704 764.627C606.763 758.554 608.071 752.097 609.469 745.839Z"/>
	<path fill="#F87526" transform="scale(0.333333 0.333333)" d="M613.568 729.228C634.762 729.77 656.037 728.419 677.157 726.781C674.184 729.962 657.306 744.14 653.895 744.632C652.943 744.348 614.138 745.559 609.469 745.839C611.02 740.359 612.24 734.767 613.568 729.228Z"/>
	<path fill="#F6C762" transform="scale(0.333333 0.333333)" d="M616.792 713.257L665.274 713.891C673.398 714.02 681.771 714.687 689.872 714.268C686.488 718.507 681.888 724.082 677.157 726.781C656.037 728.419 634.762 729.77 613.568 729.228C615.022 724.035 615.989 718.582 616.792 713.257Z"/>
	<defs>
		<linearGradient id="gradient_5" gradientUnits="userSpaceOnUse" x1="696.27008" y1="715.8324" x2="620.1983" y2="694.45624">
			<stop offset="0" stop-color="#F64B1C"/>
			<stop offset="1" stop-color="#F08643"/>
		</linearGradient>
	</defs>
	<path fill="url(#gradient_5)" transform="scale(0.333333 0.333333)" d="M617.995 699.298C646.459 699.202 674.889 698.404 703.344 698.017C699.049 703.593 694.112 708.623 689.872 714.268C681.771 714.687 673.398 714.02 665.274 713.891L616.792 713.257C617.731 708.721 617.739 703.917 617.995 699.298Z"/>
	<path fill="#335777" transform="scale(0.333333 0.333333)" d="M349.234 577.293C352.081 577.054 354.961 576.99 357.817 576.861C370.426 594.061 383.141 611.084 395.527 628.45C401.295 636.537 407.61 644.31 412.379 653.057C367.467 640.628 322.205 629.43 277.237 617.202C261.801 613.16 246.531 608.501 231.106 604.417C213.47 599.749 195.516 595.592 178.132 590.072C201.043 586.152 225.218 585.388 248.413 583.84Q298.799 580.184 349.234 577.293Z"/>
	<path fill="#5098B4" transform="scale(0.333333 0.333333)" d="M531.332 149.696C560.157 163.907 579.311 181.129 590 212.192C591.476 216.48 592.617 220.84 593.722 225.233C579.742 200.114 566.28 186.506 540.77 173.346C557.413 192.124 564.42 209.154 569.774 233.183C534.288 240.697 476.496 237.991 440.463 233.223C440.902 230.715 441.324 228.188 441.911 225.71C443.367 219.569 446.091 213.853 449.14 208.357C459.912 188.943 475.171 175.898 493.76 164.376C497.176 171.095 506.051 178.913 511.513 184.306C518.475 177.048 526.937 171.571 533.147 163.525C532.632 158.906 532.198 154.265 531.332 149.696Z"/>
	<path fill="#335777" transform="scale(0.333333 0.333333)" d="M664.319 573.897C670.363 574.059 676.476 574.94 682.521 575.384L721.482 578.145Q787.476 583.006 853.402 588.717C844.94 591.611 836.105 593.762 827.481 596.166Q792.691 605.639 757.608 613.958Q717.34 625.119 676.804 635.266C653.765 641.162 630.935 647.261 607.715 652.453C624.865 625.127 647.853 601.688 664.319 573.897Z"/>
	<path fill="#F03F21" transform="scale(0.333333 0.333333)" d="M467.376 562.243C473.66 561.302 479.906 558.216 485.015 554.529C494.248 547.866 501.82 538.986 509.66 530.802C516.636 523.521 523.976 516.586 531.164 509.515C539.969 500.853 548.81 491.581 558.924 484.415Q559.539 526.301 559.366 568.191C559.331 584.114 558.656 600.237 559.369 616.132C551.919 616.536 517.565 615.925 512.828 617.404C506.909 617.98 500.494 617.523 494.512 617.5C485.196 617.464 475.777 617.685 466.477 617.139C471.392 617.06 476.866 617.4 481.672 616.46C476.825 616.068 471.966 616.112 467.106 616.096Q467.078 589.169 467.376 562.243Z"/>
	<path fill="#5098B4" transform="scale(0.333333 0.333333)" d="M575.565 434.511L609.757 434.506C610.424 438.351 611.149 444.131 612.856 447.591C616.644 468.518 623.084 489.327 629.516 509.577C632.776 519.839 635.915 530.694 640.449 540.461C633.593 553.216 624.895 564.82 617.24 577.086C609.458 589.558 601.425 601.901 593.727 614.417C587.654 624.291 581.923 634.25 575.51 643.925L575.565 434.511Z"/>
	<path fill="#031232" transform="scale(0.333333 0.333333)" d="M612.859 504.833C613.743 505.654 627.013 532.274 630.26 537.409C624.271 547.664 618.643 557.857 613.48 568.564C606.83 558.692 601.534 547.996 595.912 537.524C600.715 526.386 607.084 515.504 612.859 504.833Z"/>
	<path fill="#F8AF57" transform="scale(0.333333 0.333333)" d="M611.857 520.082L612.695 518.513L613.443 518.496C616.815 523.074 618.293 529.646 620.989 534.782C618.746 536.287 616.254 538.037 613.503 538.295C613.193 533.261 614.089 524.499 611.857 520.082Z"/>
	<path fill="#F6C762" transform="scale(0.333333 0.333333)" d="M611.857 520.082C614.089 524.499 613.193 533.261 613.503 538.295C610.493 539.537 607.994 540.995 604.675 540.72C604.254 539.941 603.721 539.079 603.455 538.236C602.515 535.265 610.171 523.213 611.857 520.082Z"/>
	<path fill="#F87526" transform="scale(0.333333 0.333333)" d="M620.989 534.782C621.7 536.155 622.193 537.094 621.727 538.663C620.053 544.305 615.824 549.96 612.756 554.968Q608.224 548.123 604.675 540.72C607.994 540.995 610.493 539.537 613.503 538.295C616.254 538.037 618.746 536.287 620.989 534.782Z"/>
	<path fill="#5098B4" transform="scale(0.333333 0.333333)" d="M413.119 434.384Q431.274 434.679 449.43 434.528L449.042 567.81L449.069 614.796C449.073 624.771 449.329 634.893 448.656 644.846C444.389 638.611 411.697 589.877 410.845 586.556C411.428 579.146 385.833 543.689 382.534 532.773L382.729 532.243L382.988 532.466L383.64 532.212C385.883 527.605 388.068 522.925 389.689 518.06C396.872 503.981 410.865 450.601 413.119 434.384Z"/>
	<path fill="#031232" transform="scale(0.333333 0.333333)" d="M410.095 502.313C413.282 505.56 425.931 530.903 429.269 537.026C423.228 546.736 417.832 556.809 411.991 566.638L411.471 566.578C405.637 559.586 398.032 544.767 393.219 536.388C399.772 525.937 406.232 514.041 410.095 502.313Z"/>
	<path fill="#F87526" transform="scale(0.333333 0.333333)" d="M410.598 533.87L412.498 536.476C414.082 538.645 415.332 539.232 417.979 539.613C418.459 539.682 418.941 539.741 419.424 539.785L411.574 555.327C410.121 552.65 408.352 549.893 407.211 547.082C408.831 545.421 409.804 536.788 410.598 533.87Z"/>
	<path fill="#F8AF57" transform="scale(0.333333 0.333333)" d="M407.455 523.962C408.798 524.676 409.9 524.942 410.452 526.5C411.174 528.534 410.688 531.714 410.598 533.87C409.804 536.788 408.831 545.421 407.211 547.082C405.161 543.483 402.99 539.978 400.774 536.479L407.455 523.962Z"/>
	<path fill="#F8AF57" transform="scale(0.333333 0.333333)" d="M407.455 523.962C408.574 521.45 409.8 518.946 410.701 516.347C412.187 519.264 421.274 535.501 420.414 537.93C420.193 538.555 419.75 539.224 419.424 539.785C418.941 539.741 418.459 539.682 417.979 539.613C415.332 539.232 414.082 538.645 412.498 536.476L410.598 533.87C410.688 531.714 411.174 528.534 410.452 526.5C409.9 524.942 408.798 524.676 407.455 523.962Z"/>
	<path fill="#F03F21" transform="scale(0.333333 0.333333)" d="M268.16 634.105C275.452 636.2 282.841 637.943 290.127 640.081C291.013 643.31 292.282 646.382 293.518 649.489C306.588 652.639 319.532 656.903 332.468 660.589C341.063 663.039 350.384 664.942 358.756 667.987Q375.207 672.358 391.533 677.172C395.03 678.005 402.12 679.196 404.612 681.736C404.364 689.45 405.496 697.454 404.918 705.072L405.077 711.45C405.587 717.388 406.317 723.192 407.447 729.05C408.474 733.011 409.401 737.035 410.667 740.926C412.261 746.018 413.657 751.212 415.34 756.27C418.653 768.1 424.861 779.937 427.387 791.782C421.138 788.806 413.993 786.938 407.512 784.39C397.52 780.46 387.925 775.499 378.527 770.326C324.788 740.749 285.264 693.195 268.16 634.105Z"/>
	<path fill="#F6C762" transform="scale(0.333333 0.333333)" d="M410.667 740.926C412.261 746.018 413.657 751.212 415.34 756.27C408.067 755.922 400.535 756.73 393.311 755.926C383.803 754.866 373.894 746.74 366.477 741.018Q388.572 740.741 410.667 740.926Z"/>
	<path fill="#F6C762" transform="scale(0.333333 0.333333)" d="M293.518 649.489C306.588 652.639 319.532 656.903 332.468 660.589C341.063 663.039 350.384 664.942 358.756 667.987C349.87 670.808 313.522 668.287 301.737 668.065C298.884 661.914 296.063 655.775 293.518 649.489Z"/>
	<path fill="#F6C762" transform="scale(0.333333 0.333333)" d="M405.077 711.45C405.587 717.388 406.317 723.192 407.447 729.05C388.285 729.128 369.135 728.555 349.978 728.634C344.026 722.597 337.336 717.422 331.64 711.09L405.077 711.45Z"/>
	<path fill="#F6C762" transform="scale(0.333333 0.333333)" d="M391.533 677.172C395.03 678.005 402.12 679.196 404.612 681.736C404.364 689.45 405.496 697.454 404.918 705.072C404.652 703.154 404.611 701.186 404.493 699.253Q363.515 698.933 322.535 699.044C318.108 693.35 313.672 687.419 309.915 681.263C325.407 680.996 341.084 681.322 356.582 681.532L355.594 679.78C367.173 678.425 380.44 680.13 391.394 678.108L391.533 677.172Z"/>
	<path fill="#F8AF57" transform="scale(0.333333 0.333333)" d="M391.533 677.172C395.03 678.005 402.12 679.196 404.612 681.736C398.826 682.199 392.786 681.848 386.964 681.879C376.907 681.932 366.594 682.356 356.582 681.532L355.594 679.78C367.173 678.425 380.44 680.13 391.394 678.108L391.533 677.172Z"/>
	<path fill="#F87526" transform="scale(0.333333 0.333333)" d="M510.801 382.045C515.9 379.286 520.655 375.708 525.535 372.574Q542.169 361.979 558.576 351.034L558.414 356.23L558.534 441.487C558.556 455.752 558.185 470.174 558.924 484.415C548.81 491.581 539.969 500.853 531.164 509.515C523.976 516.586 516.636 523.521 509.66 530.802C501.82 538.986 494.248 547.866 485.015 554.529C479.906 558.216 473.66 561.302 467.376 562.243C467.729 550.664 467.567 539.025 467.701 527.437C468.368 469.36 467.241 411.234 468.288 353.172C482.018 363.013 496.105 373.743 510.801 382.045Z"/>
	<path fill="#F03F21" transform="scale(0.333333 0.333333)" d="M510.801 382.045C515.9 379.286 520.655 375.708 525.535 372.574Q542.169 361.979 558.576 351.034L558.414 356.23C556.898 365.187 558.014 375.737 558.138 384.885C550.549 389.899 542.344 397.05 532.611 394.906C526.374 393.532 515.437 386.271 510.801 382.045Z"/>
	<path fill="#F03F21" transform="scale(0.333333 0.333333)" d="M174.238 612.669C189.169 617.71 204.616 621.14 219.508 626.222C232.26 665.216 245.19 691.332 269.182 724.526C280.475 740.151 293.763 753.836 308.216 766.56Q310.256 768.367 312.328 770.138Q314.399 771.908 316.502 773.641Q318.606 775.374 320.74 777.069Q322.873 778.764 325.037 780.421Q327.201 782.077 329.395 783.695Q331.588 785.312 333.81 786.89Q336.032 788.468 338.282 790.006Q340.532 791.543 342.809 793.04Q345.086 794.538 347.39 795.994Q349.694 797.45 352.023 798.864Q354.352 800.279 356.707 801.651Q359.061 803.024 361.44 804.354Q363.818 805.684 366.22 806.971Q368.623 808.258 371.047 809.502Q373.472 810.746 375.919 811.946Q378.365 813.146 380.833 814.302Q383.301 815.458 385.789 816.57Q388.277 817.682 390.785 818.748Q393.293 819.815 395.819 820.837Q398.346 821.859 400.89 822.835Q403.434 823.811 405.996 824.742Q408.557 825.672 411.135 826.557Q413.713 827.441 416.306 828.279Q418.899 829.117 421.507 829.908Q424.115 830.7 426.736 831.444Q429.358 832.189 431.992 832.886Q434.627 833.583 437.273 834.233Q439.92 834.883 442.578 835.485Q445.235 836.088 447.904 836.643Q450.572 837.197 453.25 837.704Q455.927 838.211 458.614 838.669Q461.3 839.128 463.994 839.538C465.66 854.36 468.294 868.908 471.414 883.486C443.969 883.022 395.265 867.286 370.39 855.775C355.435 848.855 340.826 840.392 326.855 831.667Q321.527 828.288 316.331 824.711Q311.134 821.133 306.076 817.362Q301.018 813.592 296.106 809.633Q291.194 805.674 286.434 801.533Q281.674 797.392 277.074 793.074Q272.474 788.756 268.04 784.268Q263.606 779.78 259.345 775.128Q255.083 770.476 251 765.667C212.105 720.253 187.651 670.884 174.238 612.669Z"/>
	<path fill="#F03F21" transform="scale(0.333333 0.333333)" d="M802.264 623.755C818.166 619.154 834.386 615.626 850.343 611.209C845.36 631.578 839.677 651.767 831.669 671.191C812.688 717.229 778.282 766.695 741.283 800.147C726.408 813.595 709.802 825.479 692.676 835.88Q686.104 839.902 679.361 843.632Q672.619 847.362 665.719 850.792Q658.82 854.223 651.777 857.348Q644.734 860.473 637.56 863.286Q630.387 866.099 623.097 868.595Q615.807 871.09 608.415 873.264Q601.022 875.438 593.542 877.286Q586.061 879.133 578.507 880.651C570.3 882.287 561.962 883.941 553.619 884.699C557.438 869.61 559.469 854.452 560.795 838.963C573.913 836.109 587.051 833.309 599.934 829.502C636.761 818.62 673.506 800.378 703.094 775.74C713.555 767.029 723.13 757.276 732.375 747.306C745.076 733.608 756.231 720.923 766.355 705.153Q770.371 699.003 774.028 692.634Q777.685 686.265 780.972 679.697Q784.259 673.129 787.164 666.383Q790.07 659.638 792.585 652.737C795.97 643.199 798.401 633.081 802.264 623.755Z"/>
</svg>
